<mxfile host="65bd71144e">
    <diagram id="iZevHxX8EQcdnea6_3cA" name="Page-1">
        <mxGraphModel dx="1374" dy="561" grid="0" gridSize="10" guides="1" tooltips="1" connect="1" arrows="1" fold="1" page="1" pageScale="1" pageWidth="3000" pageHeight="3000" math="0" shadow="0">
            <root>
                <mxCell id="0"/>
                <mxCell id="1" parent="0"/>
                <mxCell id="12" style="edgeStyle=none;html=1;exitX=0.5;exitY=1;exitDx=0;exitDy=0;entryX=0;entryY=0.5;entryDx=0;entryDy=0;" edge="1" parent="1" source="2" target="8">
                    <mxGeometry relative="1" as="geometry">
                        <Array as="points">
                            <mxPoint x="172" y="266"/>
                        </Array>
                    </mxGeometry>
                </mxCell>
                <mxCell id="2" value="Ruangan&lt;br&gt;(First)" style="rounded=0;whiteSpace=wrap;html=1;" vertex="1" parent="1">
                    <mxGeometry x="124" y="141" width="96" height="64" as="geometry"/>
                </mxCell>
                <mxCell id="30" value="" style="group;container=1;" vertex="1" connectable="0" parent="1">
                    <mxGeometry x="251" y="236" width="313" height="60" as="geometry"/>
                </mxCell>
                <mxCell id="5" value="" style="rounded=0;whiteSpace=wrap;html=1;" vertex="1" parent="30">
                    <mxGeometry x="49" width="160" height="60" as="geometry"/>
                </mxCell>
                <mxCell id="7" value="" style="rounded=0;whiteSpace=wrap;html=1;" vertex="1" parent="30">
                    <mxGeometry x="209" width="52" height="60" as="geometry"/>
                </mxCell>
                <mxCell id="8" value="" style="rounded=0;whiteSpace=wrap;html=1;" vertex="1" parent="30">
                    <mxGeometry width="49" height="60" as="geometry"/>
                </mxCell>
                <mxCell id="9" value="" style="rounded=0;whiteSpace=wrap;html=1;" vertex="1" parent="30">
                    <mxGeometry x="261" width="52" height="60" as="geometry"/>
                </mxCell>
                <mxCell id="13" value="" style="endArrow=none;html=1;exitX=0;exitY=1;exitDx=0;exitDy=0;entryX=1;entryY=0;entryDx=0;entryDy=0;" edge="1" parent="30" source="8" target="8">
                    <mxGeometry width="50" height="50" as="geometry">
                        <mxPoint x="-2" y="52" as="sourcePoint"/>
                        <mxPoint x="48" y="2" as="targetPoint"/>
                    </mxGeometry>
                </mxCell>
                <mxCell id="29" value="&lt;div style=&quot;text-align: justify ; font-size: 11px&quot;&gt;&lt;font style=&quot;font-size: 11px&quot;&gt;dokter :&amp;nbsp; Dhaifa&lt;/font&gt;&lt;/div&gt;&lt;div style=&quot;text-align: justify ; font-size: 11px&quot;&gt;&lt;span&gt;&lt;font style=&quot;font-size: 11px&quot;&gt;Spesialisasi : Dokter Gigi&lt;/font&gt;&lt;/span&gt;&lt;/div&gt;&lt;div style=&quot;text-align: justify ; font-size: 11px&quot;&gt;&lt;font style=&quot;font-size: 11px&quot;&gt;waktu : 08:00 - 16:00&lt;/font&gt;&lt;/div&gt;" style="text;html=1;align=left;verticalAlign=middle;resizable=0;points=[];autosize=1;strokeColor=none;" vertex="1" parent="30">
                    <mxGeometry x="57" y="7" width="132" height="46" as="geometry"/>
                </mxCell>
                <mxCell id="31" value="" style="group;container=1;" vertex="1" connectable="0" parent="1">
                    <mxGeometry x="626" y="236" width="313" height="60" as="geometry"/>
                </mxCell>
                <mxCell id="32" value="" style="rounded=0;whiteSpace=wrap;html=1;" vertex="1" parent="31">
                    <mxGeometry x="49" width="160" height="60" as="geometry"/>
                </mxCell>
                <mxCell id="33" value="" style="rounded=0;whiteSpace=wrap;html=1;" vertex="1" parent="31">
                    <mxGeometry x="209" width="52" height="60" as="geometry"/>
                </mxCell>
                <mxCell id="34" value="" style="rounded=0;whiteSpace=wrap;html=1;" vertex="1" parent="31">
                    <mxGeometry width="49" height="60" as="geometry"/>
                </mxCell>
                <mxCell id="35" value="" style="rounded=0;whiteSpace=wrap;html=1;" vertex="1" parent="31">
                    <mxGeometry x="261" width="52" height="60" as="geometry"/>
                </mxCell>
                <mxCell id="38" value="" style="endArrow=none;html=1;exitX=0;exitY=1;exitDx=0;exitDy=0;entryX=1;entryY=0;entryDx=0;entryDy=0;" edge="1" parent="31" source="35" target="35">
                    <mxGeometry x="-737" y="-235" width="50" height="50" as="geometry">
                        <mxPoint x="261" y="60" as="sourcePoint"/>
                        <mxPoint x="313" as="targetPoint"/>
                    </mxGeometry>
                </mxCell>
                <mxCell id="41" value="&lt;div style=&quot;text-align: justify ; font-size: 11px&quot;&gt;&lt;font style=&quot;font-size: 11px&quot;&gt;dokter :&amp;nbsp; Nanditya&lt;/font&gt;&lt;/div&gt;&lt;div style=&quot;text-align: justify ; font-size: 11px&quot;&gt;&lt;span&gt;&lt;font style=&quot;font-size: 11px&quot;&gt;Spesialisasi : Dokter Umum&lt;/font&gt;&lt;/span&gt;&lt;/div&gt;&lt;div style=&quot;text-align: justify ; font-size: 11px&quot;&gt;&lt;font style=&quot;font-size: 11px&quot;&gt;waktu : 08:00 - 16:00&lt;/font&gt;&lt;/div&gt;" style="text;html=1;align=left;verticalAlign=middle;resizable=0;points=[];autosize=1;strokeColor=none;" vertex="1" parent="31">
                    <mxGeometry x="56" y="7" width="145" height="46" as="geometry"/>
                </mxCell>
                <mxCell id="39" style="edgeStyle=none;html=1;exitX=1;exitY=0.25;exitDx=0;exitDy=0;entryX=0;entryY=0.25;entryDx=0;entryDy=0;" edge="1" parent="1" source="9" target="34">
                    <mxGeometry relative="1" as="geometry"/>
                </mxCell>
                <mxCell id="40" style="edgeStyle=none;html=1;exitX=0;exitY=0.75;exitDx=0;exitDy=0;entryX=1;entryY=0.75;entryDx=0;entryDy=0;" edge="1" parent="1" source="34" target="9">
                    <mxGeometry relative="1" as="geometry"/>
                </mxCell>
                <mxCell id="44" value="" style="group" vertex="1" connectable="0" parent="1">
                    <mxGeometry x="460" y="332" width="104" height="60" as="geometry"/>
                </mxCell>
                <mxCell id="42" value="" style="rounded=0;whiteSpace=wrap;html=1;" vertex="1" parent="44">
                    <mxGeometry width="52" height="60" as="geometry"/>
                </mxCell>
                <mxCell id="43" value="" style="rounded=0;whiteSpace=wrap;html=1;" vertex="1" parent="44">
                    <mxGeometry x="52" width="52" height="60" as="geometry"/>
                </mxCell>
                <mxCell id="54" value="" style="endArrow=none;html=1;exitX=0;exitY=1;exitDx=0;exitDy=0;entryX=1;entryY=0;entryDx=0;entryDy=0;" edge="1" parent="44" source="42" target="42">
                    <mxGeometry width="50" height="50" relative="1" as="geometry">
                        <mxPoint x="165" y="71" as="sourcePoint"/>
                        <mxPoint x="215" y="21" as="targetPoint"/>
                    </mxGeometry>
                </mxCell>
                <mxCell id="45" value="" style="group" vertex="1" connectable="0" parent="1">
                    <mxGeometry x="836" y="427" width="104" height="60" as="geometry"/>
                </mxCell>
                <mxCell id="46" value="" style="rounded=0;whiteSpace=wrap;html=1;" vertex="1" parent="45">
                    <mxGeometry width="52" height="60" as="geometry"/>
                </mxCell>
                <mxCell id="47" value="" style="rounded=0;whiteSpace=wrap;html=1;" vertex="1" parent="45">
                    <mxGeometry x="52" width="52" height="60" as="geometry"/>
                </mxCell>
                <mxCell id="55" value="" style="endArrow=none;html=1;exitX=0;exitY=1;exitDx=0;exitDy=0;entryX=1;entryY=0;entryDx=0;entryDy=0;" edge="1" parent="45" source="46" target="46">
                    <mxGeometry width="50" height="50" relative="1" as="geometry">
                        <mxPoint y="-35" as="sourcePoint"/>
                        <mxPoint x="52" y="-95" as="targetPoint"/>
                    </mxGeometry>
                </mxCell>
                <mxCell id="48" value="" style="group" vertex="1" connectable="0" parent="1">
                    <mxGeometry x="836" y="332" width="104" height="60" as="geometry"/>
                </mxCell>
                <mxCell id="49" value="" style="rounded=0;whiteSpace=wrap;html=1;" vertex="1" parent="48">
                    <mxGeometry width="52" height="60" as="geometry"/>
                </mxCell>
                <mxCell id="50" value="" style="rounded=0;whiteSpace=wrap;html=1;" vertex="1" parent="48">
                    <mxGeometry x="52" width="52" height="60" as="geometry"/>
                </mxCell>
                <mxCell id="51" style="edgeStyle=none;html=1;exitX=0.5;exitY=1;exitDx=0;exitDy=0;entryX=0.5;entryY=0;entryDx=0;entryDy=0;" edge="1" parent="1" source="7" target="42">
                    <mxGeometry relative="1" as="geometry"/>
                </mxCell>
                <mxCell id="52" style="edgeStyle=none;html=1;exitX=0.5;exitY=1;exitDx=0;exitDy=0;entryX=0.5;entryY=0;entryDx=0;entryDy=0;" edge="1" parent="1" source="33" target="49">
                    <mxGeometry relative="1" as="geometry"/>
                </mxCell>
                <mxCell id="53" style="edgeStyle=none;html=1;exitX=0.5;exitY=1;exitDx=0;exitDy=0;" edge="1" parent="1" source="49" target="46">
                    <mxGeometry relative="1" as="geometry"/>
                </mxCell>
                <mxCell id="64" style="edgeStyle=none;html=1;exitX=0.5;exitY=1;exitDx=0;exitDy=0;entryX=1;entryY=0.5;entryDx=0;entryDy=0;" edge="1" parent="1" source="63" target="35">
                    <mxGeometry relative="1" as="geometry">
                        <Array as="points">
                            <mxPoint x="1031" y="266"/>
                        </Array>
                    </mxGeometry>
                </mxCell>
                <mxCell id="63" value="Ruangan&lt;br&gt;(Last)" style="rounded=0;whiteSpace=wrap;html=1;" vertex="1" parent="1">
                    <mxGeometry x="983" y="141" width="96" height="64" as="geometry"/>
                </mxCell>
                <mxCell id="66" style="edgeStyle=none;html=1;exitX=0.5;exitY=1;exitDx=0;exitDy=0;entryX=0;entryY=0.483;entryDx=0;entryDy=0;entryPerimeter=0;" edge="1" parent="1" source="65" target="57">
                    <mxGeometry relative="1" as="geometry">
                        <mxPoint x="246" y="636" as="targetPoint"/>
                    </mxGeometry>
                </mxCell>
                <mxCell id="65" value="Ruangan&lt;br&gt;(First)" style="rounded=0;whiteSpace=wrap;html=1;" vertex="1" parent="1">
                    <mxGeometry x="124" y="495" width="96" height="64" as="geometry"/>
                </mxCell>
                <mxCell id="68" value="" style="group" vertex="1" connectable="0" parent="1">
                    <mxGeometry x="251" y="607" width="212" height="73" as="geometry"/>
                </mxCell>
                <mxCell id="57" value="" style="rounded=0;whiteSpace=wrap;html=1;" vertex="1" parent="68">
                    <mxGeometry width="160" height="70.64516129032259" as="geometry"/>
                </mxCell>
                <mxCell id="58" value="" style="rounded=0;whiteSpace=wrap;html=1;" vertex="1" parent="68">
                    <mxGeometry x="160" width="52" height="70.64516129032259" as="geometry"/>
                </mxCell>
                <mxCell id="62" value="&lt;div style=&quot;text-align: justify ; font-size: 11px&quot;&gt;idPasien : 123456&lt;/div&gt;&lt;div style=&quot;text-align: justify ; font-size: 11px&quot;&gt;nama : Henry&lt;/div&gt;&lt;div style=&quot;text-align: justify ; font-size: 11px&quot;&gt;umur : 16&lt;/div&gt;&lt;div style=&quot;text-align: justify ; font-size: 11px&quot;&gt;keluhan : DBD&lt;/div&gt;" style="text;html=1;align=left;verticalAlign=middle;resizable=0;points=[];autosize=1;strokeColor=none;" vertex="1" parent="68">
                    <mxGeometry x="11" y="6.5" width="98" height="60" as="geometry"/>
                </mxCell>
                <mxCell id="82" value="" style="group" vertex="1" connectable="0" parent="1">
                    <mxGeometry x="505" y="607" width="212" height="73" as="geometry"/>
                </mxCell>
                <mxCell id="83" value="" style="rounded=0;whiteSpace=wrap;html=1;" vertex="1" parent="82">
                    <mxGeometry width="160" height="70.64516129032259" as="geometry"/>
                </mxCell>
                <mxCell id="84" value="" style="rounded=0;whiteSpace=wrap;html=1;" vertex="1" parent="82">
                    <mxGeometry x="160" width="52" height="70.64516129032259" as="geometry"/>
                </mxCell>
                <mxCell id="85" value="&lt;div style=&quot;text-align: justify ; font-size: 11px&quot;&gt;&lt;br&gt;&lt;/div&gt;" style="text;html=1;align=left;verticalAlign=middle;resizable=0;points=[];autosize=1;strokeColor=none;" vertex="1" parent="82">
                    <mxGeometry x="11" y="27.5" width="10" height="18" as="geometry"/>
                </mxCell>
                <mxCell id="80" value="&lt;div style=&quot;text-align: justify ; font-size: 11px&quot;&gt;idPasien : 1234567&lt;/div&gt;&lt;div style=&quot;text-align: justify ; font-size: 11px&quot;&gt;nama : Betty&lt;/div&gt;&lt;div style=&quot;text-align: justify ; font-size: 11px&quot;&gt;umur : 20&lt;/div&gt;&lt;div style=&quot;text-align: justify ; font-size: 11px&quot;&gt;keluhan : Sakit Gigi&lt;/div&gt;" style="text;html=1;align=left;verticalAlign=middle;resizable=0;points=[];autosize=1;strokeColor=none;" vertex="1" parent="82">
                    <mxGeometry x="11" y="6.5" width="105" height="60" as="geometry"/>
                </mxCell>
                <mxCell id="86" value="" style="group" vertex="1" connectable="0" parent="1">
                    <mxGeometry x="782" y="607" width="212" height="73" as="geometry"/>
                </mxCell>
                <mxCell id="87" value="" style="rounded=0;whiteSpace=wrap;html=1;" vertex="1" parent="86">
                    <mxGeometry width="160" height="70.64516129032259" as="geometry"/>
                </mxCell>
                <mxCell id="88" value="" style="rounded=0;whiteSpace=wrap;html=1;" vertex="1" parent="86">
                    <mxGeometry x="160" width="52" height="70.64516129032259" as="geometry"/>
                </mxCell>
                <mxCell id="81" value="&lt;div style=&quot;text-align: justify ; font-size: 11px&quot;&gt;idPasien : 123458&lt;/div&gt;&lt;div style=&quot;text-align: justify ; font-size: 11px&quot;&gt;nama : Andra&lt;/div&gt;&lt;div style=&quot;text-align: justify ; font-size: 11px&quot;&gt;umur : 54&lt;/div&gt;&lt;div style=&quot;text-align: justify ; font-size: 11px&quot;&gt;keluhan : Sesak Napas&lt;/div&gt;" style="text;html=1;align=left;verticalAlign=middle;resizable=0;points=[];autosize=1;strokeColor=none;" vertex="1" parent="86">
                    <mxGeometry x="9" y="5.319999999999936" width="123" height="60" as="geometry"/>
                </mxCell>
                <mxCell id="92" value="" style="endArrow=none;html=1;entryX=1;entryY=0;entryDx=0;entryDy=0;exitX=0;exitY=1;exitDx=0;exitDy=0;" edge="1" parent="86" source="88" target="88">
                    <mxGeometry width="50" height="50" relative="1" as="geometry">
                        <mxPoint x="-91" y="-24" as="sourcePoint"/>
                        <mxPoint x="-41" y="-74" as="targetPoint"/>
                    </mxGeometry>
                </mxCell>
                <mxCell id="90" style="edgeStyle=none;html=1;exitX=1;exitY=0.5;exitDx=0;exitDy=0;entryX=0;entryY=0.5;entryDx=0;entryDy=0;" edge="1" parent="1" source="58" target="83">
                    <mxGeometry relative="1" as="geometry"/>
                </mxCell>
                <mxCell id="91" style="edgeStyle=none;html=1;exitX=1;exitY=0.5;exitDx=0;exitDy=0;entryX=0;entryY=0.5;entryDx=0;entryDy=0;" edge="1" parent="1" source="84" target="87">
                    <mxGeometry relative="1" as="geometry"/>
                </mxCell>
                <mxCell id="93" style="edgeStyle=none;html=1;exitX=0.5;exitY=1;exitDx=0;exitDy=0;entryX=0.5;entryY=0;entryDx=0;entryDy=0;" edge="1" parent="1" source="43" target="83">
                    <mxGeometry relative="1" as="geometry">
                        <Array as="points">
                            <mxPoint x="538" y="499"/>
                            <mxPoint x="585" y="499"/>
                        </Array>
                    </mxGeometry>
                </mxCell>
                <mxCell id="94" style="edgeStyle=none;html=1;exitX=1;exitY=0.5;exitDx=0;exitDy=0;entryX=0.5;entryY=0;entryDx=0;entryDy=0;" edge="1" parent="1" source="50" target="57">
                    <mxGeometry relative="1" as="geometry">
                        <Array as="points">
                            <mxPoint x="1023" y="362"/>
                            <mxPoint x="1023" y="559"/>
                            <mxPoint x="331" y="559"/>
                        </Array>
                    </mxGeometry>
                </mxCell>
                <mxCell id="95" style="edgeStyle=none;html=1;exitX=1;exitY=0.5;exitDx=0;exitDy=0;entryX=0.5;entryY=0;entryDx=0;entryDy=0;" edge="1" parent="1" source="47" target="87">
                    <mxGeometry relative="1" as="geometry">
                        <Array as="points">
                            <mxPoint x="992" y="457"/>
                            <mxPoint x="992" y="588"/>
                            <mxPoint x="862" y="588"/>
                        </Array>
                    </mxGeometry>
                </mxCell>
            </root>
        </mxGraphModel>
    </diagram>
</mxfile>